<svg xmlns="http://www.w3.org/2000/svg" viewBox="0 0 1130 296"><path d="M383 140.8h22.2v114.9H383V140.8zm46.2 30.8h20.1v13.3c5.4-10.4 16.7-15.1 28.4-15.1 20.2 0 29.3 14.2 29.3 33.3v52.6h-20.4v-50.6c0-11.8-5.3-18.7-17.2-18.7s-20.1 7.9-20.1 19.9v49.4h-20.1v-84zm85.6 0h21.5l21.7 63.6 21.5-63.6h19.6l-30.3 84.1h-23.5l-30.5-84.1zm168.6 65.8c-7 14.8-22 19.8-37.5 19.8-26.5 0-43.2-17.7-43.2-43.9s17-43.6 42.3-43.6 40.4 15.9 40.4 48.3h-62.2c0 14.2 8.2 24.6 23.5 24.6s16.6-3.7 21-12.2l15.7 7zm-18-32.5c-.6-12.7-8.3-20.5-20.2-20.5s-20 8.9-21.7 20.5h41.9zm36.1-33.3h20.1v13.3c5.4-10.4 16.7-15.1 28.4-15.1 20.2 0 29.3 14.2 29.3 33.3v52.6h-20.4v-50.6c0-11.8-5.3-18.7-17.2-18.7s-20.1 7.9-20.1 19.9v49.4h-20.1v-84zM843 255.1c-4.3 1.3-8.8 2-13.8 2-16 0-25.5-8.3-25.5-25v-45.7h-11.3v-14.8h11.3v-17.3l20.1-8.7v26.1h18.5v14.8h-18.5v43.9c0 6.6 2.8 10.7 10.2 10.7s6-.6 9-1.6v15.8zm53.9-85.3c25.5 0 45.1 17.9 45.1 43.6s-20.6 43.8-46 43.8-46.1-17.7-46.1-43.4 21.7-44 47-44zm23.5 43.8c0-15.5-7.8-28.3-24.3-28.3s-23.7 13.5-23.7 28.9 7.9 27.6 24.2 27.6 23.9-13.5 23.9-28.2zm36.3-42h20.1v15.8c5.7-11.5 14.8-17 27.6-17V189c-16.2 0-27.6 5.3-27.6 23.3v43.4h-20.1v-84.1zm88.4 75.5l-33-75.5h21.5l22.1 53.7 20.6-53.7h19.5l-46.2 112.9h-19.7l15.2-37.4zM382.3 104.4l37-53.4h-33.2V40.5h50.6v5.2l-36.1 53.4h35v10.5h-53.3v-5.2zM468.4 58c15.4 0 27.2 10.8 27.2 26.3s-12.4 26.4-27.7 26.4-27.8-10.7-27.8-26.1 13.1-26.5 28.3-26.5zm14.1 26.3c0-9.3-4.7-17.1-14.6-17.1s-14.3 8.1-14.3 17.4 4.8 16.6 14.6 16.6c10.1 0 14.4-8.1 14.4-17zm21.9-48.2h12.1v31c3.3-6.3 9.9-9.1 16.9-9.1 12.1 0 18.2 8.5 18.2 20v31.7h-12.2V79.2c0-7.3-3.8-11.2-10.8-11.2s-12 4.8-12 12v29.7h-12.1V36.1zM587.7 58c15.4 0 27.2 10.8 27.2 26.3s-12.4 26.4-27.7 26.4-27.8-10.7-27.8-26.1c0-15.9 13.1-26.5 28.3-26.5zm14.2 26.3c0-9.3-4.7-17.1-14.7-17.1s-14.3 8.1-14.3 17.4 4.8 16.6 14.6 16.6c10.1 0 14.4-8.1 14.4-17z"/><path fill="#e42527" d="M102.2 248.1c-4.1 0-7.6-3-8.3-7L57.2 33.2c-.7-3.8-3.4-6.9-7.1-8.1L33.7 20c-4.5-1.4-7-6.1-5.7-10.6s6.1-7 10.6-5.7h.2l16.4 5.1c9.8 3 17 11.3 18.8 21.3L110.7 238c.8 4.6-2.3 9-6.9 9.8-.5 0-1 .1-1.5.1zm40.4 28.3c-4.7 0-8.5-3.8-8.5-8.5s3-7.6 7-8.4l150.6-26.6c5.6-.9 9.4-6.3 8.5-11.9-1-5.6-6.3-9.4-11.9-8.4h-.1l-129.4 22.8c-14.9 2.6-29-7.3-31.6-22.1L104.4 83.9c-2.6-14.8 7.3-29 22.1-31.6l129.4-22.8c14.8-2.6 29 7.3 31.6 22.1l21.1 119.7c.8 4.6-2.4 9-7 9.7-4.5.7-8.8-2.3-9.7-6.8L270.8 54.5c-1-5.6-6.3-9.4-12-8.4L129.4 68.9c-5.6 1-9.4 6.3-8.4 11.9l22.8 129.3c1 5.6 6.3 9.4 11.9 8.4L285 195.7c14.8-2.9 29.1 6.8 32 21.6 2.9 14.8-6.8 29.1-21.6 32-.3 0-.6.1-.9.2l-150.6 26.6c-.5.1-1 .1-1.5.1z"/><path fill="#f9b21d" d="M176.8 111.2c-4.7 0-8.5-3.8-8.5-8.5s3-7.7 7-8.4l49.1-8.7c4.6-.8 9 2.3 9.8 6.9s-2.3 9-6.9 9.8l-49.1 8.7c-.5 0-1 .1-1.5.1z"/><path fill="#e42527" d="M118.9 292.6c-18.8 0-33.9-15.2-33.9-34s15.2-33.9 34-33.9 34 15.2 34 34-11.8 30.5-28 33.4c-2 .4-3.9.5-5.9.5zm.1-50.8c-1 0-2 0-3 .3-9.1 1.6-15.2 10.4-13.6 19.5s10.4 15.2 19.5 13.6c9.1-1.6 15.2-10.4 13.6-19.5-1.4-8-8.4-13.9-16.5-13.9z"/></svg>